<?xml version="1.0" encoding="UTF-8"?>
<svg width="32" height="32" viewBox="0 0 32 32" fill="none" xmlns="http://www.w3.org/2000/svg">
  <!-- Background circle -->
  <circle cx="16" cy="16" r="16" fill="#2563EB"/>
  
  <!-- CC text -->
  <path d="M10 12C10 10.8954 10.8954 10 12 10H20C21.1046 10 22 10.8954 22 12V20C22 21.1046 21.1046 22 20 22H12C10.8954 22 10 21.1046 10 20V12Z" fill="white"/>
  <path d="M14 14C14 13.4477 14.4477 13 15 13H17C17.5523 13 18 13.4477 18 14V18C18 18.5523 17.5523 19 17 19H15C14.4477 19 14 18.5523 14 18V14Z" fill="#2563EB"/>
</svg> 